<?xml version="1.0" encoding="UTF-8"?>
<svg version="1.1" xmlns="http://www.w3.org/2000/svg" width="157" height="171">
<path d="M0 0 C3.1526055 1.40251129 5.34315127 3.06495914 7.81542969 5.46142578 C8.5500946 6.17042023 9.28475952 6.87941467 10.04168701 7.6098938 C10.82714905 8.38058197 11.61261108 9.15127014 12.421875 9.9453125 C13.65009979 11.14932205 13.65009979 11.14932205 14.90313721 12.37765503 C16.63764716 14.08449783 18.36907631 15.79447615 20.09765625 17.50732422 C21.84974983 19.23651672 23.61069999 20.95678635 25.38085938 22.66748047 C38.6117412 35.45418978 50.89878132 47.91781066 51.29248047 67.26049805 C51.35634481 76.19916863 51.34744494 83.94719429 47 92 C46.29423828 93.31871094 46.29423828 93.31871094 45.57421875 94.6640625 C38.40384097 107.2261197 28.65942073 115.15019127 14.9296875 119.68359375 C2.01810406 123.13779965 -11.66783689 121.3293958 -23.5625 115.5 C-36.10146496 108.09225413 -44.68133202 96.5684641 -48.69140625 82.58984375 C-50.64218069 66.21815448 -48.37250678 52.76127924 -39 39 C-36.13697881 35.64435285 -33.03992093 32.57001338 -29.8828125 29.4921875 C-29.02565643 28.64069122 -28.16850037 27.78919495 -27.28536987 26.91189575 C-24.57457826 24.22330068 -21.8501455 21.54903697 -19.125 18.875 C-17.2725137 17.04260012 -15.42094186 15.20927527 -13.5703125 13.375 C-9.05738882 8.90592166 -4.53321338 4.44849119 0 0 Z " fill="#FFFFFF" transform="translate(74,38)"/>
<path d="M0 0 C5.17505176 2.27306585 8.62707888 6.29797372 12.5625 10.25 C13.33013672 11.00152344 14.09777344 11.75304688 14.88867188 12.52734375 C21.01336826 18.64670038 24.56177093 23.91654274 25.3125 32.625 C25.1864966 38.77625684 23.20643754 44.34032134 19.26953125 49.0859375 C14.1159366 53.96179352 8.64308815 56.83391753 1.48828125 57.08984375 C-6.06704777 56.63860664 -12.11853613 54.33957291 -17.3125 48.75 C-21.39451552 43.53347336 -23.67776615 37.83672768 -23.3347168 31.109375 C-21.78571054 21.347585 -16.22563628 15.44879017 -9.25 8.875 C-8.36183594 8.01390625 -7.47367188 7.1528125 -6.55859375 6.265625 C-4.38551435 4.16264493 -2.19968908 2.07506986 0 0 Z " fill="#FFFFFF" transform="translate(121,8)"/>
</svg>
